<svg xmlns="http://www.w3.org/2000/svg" viewBox="0 0 150 112">
<!-- SVG created with Arrow, by QuiverAI (https://quiver.ai) -->
  <style type="text/css">.cls-0 {fill:#F4F6EF;}
.cls-1 {fill:url(#SVGID_1_);}
.cls-2 {fill:#1A1A1A;}
path {fill:#1A1A1A;}
path.cls-1 {fill:url(#SVGID_1_);}</style>
  <radialGradient id="SVGID_1_" cx="75.88" cy="55.8" r="61.29" gradientUnits="userSpaceOnUse">
    <stop stop-color="#020203" stop-opacity="0" offset=".5347"/>
    <stop stop-color="#020203" stop-opacity=".1" offset="1"/>
  </radialGradient>
  <path class="cls-1" d="m137 46c-6-6.2-13.6-9.2-15.7-12.8-1.7-2.2-1.3-8.2-1.3-8.1 0-3.2 0.7-5.7 3.5-5.7s3.5 2.6 3.6 5.6v6l13.8-0.4v-5c-0.2-10.9-4.1-17.9-16.4-17.7-5.8 0-10.1 1.3-13.1 4.3-3.4 2.8-5.4 7.8-5.4 14.8 0 18.5 13.7 19.8 18.9 26.5 2.7 3.2 2.5 7.4 2.5 10.2 0 4-0.9 5.9-3.4 5.9-2.2 0-3-0.7-3.7-3.1-0.6-2.1-0.2-11.3-0.4-11.3l-13.8 0.6c-0.5 10-0.3 23.8 15.2 24.7 12.7 0.6 19.1-3.6 20.1-14.5 0.7-8.1-0.1-15.6-4.4-20zm-92-37h1.2l-5.9 32.6-1.3 9.3-1.3-8.8-5.9-33.1h-21.8v72h13.6v-34.3l-1-22.2h0.2l9.1 56.5h11.9l9.6-56.6h0.6l-0.6 21.6v35h12.6v-72h-21zm23 10h10v62h14.4v-62h10.1v-10h-34.5v10z"/>
  <path class="cls-2" d="m10.1 88.9h4l1.7 8.6 2-8.6h4v12.9h-2.5v-10.3l-2.3 10.3h-2.2l-2.2-10.2v10.2h-2.5v-12.9z"/>
  <path class="cls-2" d="m23.3 88.9h2.7v12.9h-2.7v-12.9z"/>
  <path class="cls-2" d="m27.5 88.9h3.2l3.2 8.4-0.1-8.4h2.7v12.9h-3.2l-3.2-8.8v8.8h-2.6v-12.9z"/>
  <path class="cls-2" d="m37.7 88.9h2.7v4.8h2.9v-4.8h2.8v12.9h-2.8v-5.9h-2.9v5.9h-2.7v-12.9z"/>
  <path class="cls-2" d="m53.2 91h-2.8v-2.1h8.3v2.1h-2.7v10.8h-2.8v-10.8z"/>
  <path class="cls-2" d="m62.1 88.8v9.1c0 1.2 0.4 2 1.5 2s1.5-0.8 1.5-2v-9.1h2.5v8.8c0 2.9-1.5 4.4-4.1 4.4-2.5 0-4.2-1-4.2-4.3v-8.9h2.8zm-1.1-3.7h2.8l0.9 2.9h-1.9l-1.8-2.9z"/>
  <path class="cls-2" d="m68.8 88.9h3l3.1 8.3v-8.4h2.3v13h-2.9l-3.2-8.8v8.8h-2.3v-12.9z"/>
  <path class="cls-2" d="m84.3 93c0-1.2-0.6-2.3-1.6-2.3-1.3 0-1.7 1.3-1.7 4.4 0 3 0.4 4.9 1.7 4.9 0.7 0 1.6-0.6 1.6-2.1v-1.3h-1.7v-2h4.4v7.2h-1.9v-1.2c-0.4 0.8-1.4 1.5-2.9 1.5-3.2 0-3.8-2.4-3.8-6.8 0-3.9 0.8-6.6 4.3-6.6 3-0.1 4.2 1.5 4.2 4.2l-2.6 0.1z"/>
  <path class="cls-2" d="m94 97.5v0.4c0 1.1 0.4 2 1.5 2 1.1 0.1 1.6-0.8 1.6-1.6 0-3-5.6-1.5-5.6-6 0-2.1 1.1-3.7 4-3.7 2.8 0 4 1.6 4 3.4v0.7h-2.6c0-0.7-0.1-2.1-1.3-2.1-1.1 0-1.5 0.8-1.5 1.5 0 2.7 5.7 1.5 5.7 5.6 0.1 3-1.7 4.3-4.3 4.3-2 0-4.1-0.7-4.1-3.4v-1.1h2.6z"/>
  <path class="cls-2" d="m102.8 91h-2.7l-0.1-2.1h8.4v2.1h-2.8v10.8h-2.8v-10.8z"/>
  <path class="cls-2" d="m112 88.9v9c0 1.2 0.4 2 1.5 2s1.5-0.8 1.5-2v-9h2.6v8.8c0 2.9-1.1 4.3-4.1 4.3-2.7 0-4.5-1.1-4.5-4.3v-8.8h3z"/>
  <path class="cls-2" d="m118.7 88.9h4.4c3.7 0 4.6 2.2 4.6 6.2 0 4.5-0.9 6.6-4.4 6.6h-4.6v-12.8zm2.7 10.7h1.3c1.7 0 2-1.2 2-4.5 0-2.7-0.1-4.3-2-4.3h-1.2v8.8z"/>
  <path class="cls-2" d="m128.9 88.9h2.9v12.9h-2.9v-12.9z"/>
  <path class="cls-2" d="m137.2 88.6c4 0 4.4 2.8 4.4 6.6 0 3.9-0.3 6.8-4.2 6.8-3.7 0-4.5-2.1-4.5-6.6 0-4 0.5-6.8 4.3-6.8zm0.1 11.3c1.5 0 1.6-1.3 1.6-4.7 0-3.1-0.3-4.6-1.5-4.6-1.4 0-1.8 1.3-1.8 4.6 0 3.4 0.3 4.7 1.7 4.7z"/>
  <path d="m46.5 9.2-6.2 33.8-1.3 11h-0.1l-1.3-10-6.4-34.8h-21.1v72.5h14l-0.1-35.5-0.9-21.5 9.8 57.1h11.8l10-57v-0.1h0.1l-0.9 21.3-0.1 35.8h13.8v-72.6zm23.1 0v12.3h10l0.1 60.2h14.8v-60.2h10.3v-12.3zm57.6 23.4 14-0.6v-5.8c-0.3-10.7-4.5-17.9-17.5-17.9-6.1 0-9.8 1.4-12.7 4.1-3.2 2.9-5.4 7.7-5.4 14.8 0 17.4 12.5 19.6 19 26.8 2.6 2.9 3 6.3 2.9 11 0 3.9-1 5.9-3.8 5.8-1.9 0-2.9-1-3.7-3.4-0.6-2.3-0.3-11.3-0.4-11.3l-14.3 0.7c-0.7 10.2 0.1 20.2 6.6 23.2 5.4 3.1 12.6 2.8 16 2.4 8.9-0.8 13.2-6.2 13.8-15.7 0.6-7.9-0.2-14.3-3.9-19-6.1-7.1-13.8-10-16-13.7-2-2.6-2-6.2-2-8.4 0-3 0.7-5.7 3.6-5.7 2.5 0 3.8 1.7 3.9 5.5l-0.1 7.2z" fill="#020303"/>
</svg>